<?xml version="1.0" standalone="no"?>
<!DOCTYPE svg PUBLIC "-//W3C//DTD SVG 20010904//EN"
 "http://www.w3.org/TR/2001/REC-SVG-20010904/DTD/svg10.dtd">
<svg version="1.0" xmlns="http://www.w3.org/2000/svg"
 width="514.000000pt" height="514.000000pt" viewBox="0 0 514.000000 514.000000"
 preserveAspectRatio="xMidYMid meet">
<metadata>
Created by potrace 1.14, written by Peter Selinger 2001-2017
</metadata>
<g transform="translate(0.000000,514.000000) scale(0.100000,-0.100000)"
fill="#000000" stroke="none">
<path d="M803 5125 c-126 -23 -272 -83 -383 -158 -66 -45 -186 -163 -236 -233
-57 -80 -128 -230 -156 -329 l-23 -80 -3 -1714 c-3 -1888 -5 -1798 59 -1975
33 -93 111 -224 180 -306 110 -129 316 -257 489 -302 l85 -23 1755 0 1755 0
85 23 c165 43 325 135 446 256 121 121 213 281 256 446 l23 85 0 1755 0 1755
-23 85 c-45 173 -173 379 -302 489 -82 69 -213 147 -306 180 -176 64 -89 61
-1943 60 -1336 -1 -1701 -4 -1758 -14z m1594 -841 c49 -39 99 -138 119 -234
22 -104 14 -356 -16 -495 -27 -127 -88 -312 -140 -423 -90 -191 -244 -378
-355 -432 -277 -134 -433 228 -325 749 73 347 261 694 443 814 72 48 103 57
174 54 52 -2 68 -8 100 -33z m1080 25 c69 -26 130 -116 160 -236 21 -84 23
-324 4 -433 -77 -453 -310 -863 -540 -951 -64 -24 -105 -24 -156 0 -121 56
-183 233 -172 496 15 382 183 804 405 1018 107 102 211 140 299 106z m555
-1738 c63 -24 106 -67 128 -129 11 -30 15 -178 17 -734 4 -662 3 -697 -14
-706 -55 -29 -314 -42 -415 -21 -132 28 -194 100 -210 241 l-3 27 -95 -65
c-169 -116 -361 -198 -577 -246 -84 -19 -129 -22 -313 -22 -201 0 -223 1 -335
28 -318 75 -556 206 -781 430 -290 291 -445 641 -461 1044 l-6 152 297 0 296
0 0 -69 c0 -437 282 -824 696 -954 414 -131 885 31 1126 386 103 151 148 296
155 499 l6 138 36 6 c94 18 156 22 271 20 99 -3 137 -8 182 -25z"/>
</g>
</svg>
